<mxfile host="app.diagrams.net" agent="Mozilla/5.0 (Windows NT 10.0; Win64; x64) AppleWebKit/537.36 (KHTML, like Gecko) Chrome/141.0.0.0 Safari/537.36 Edg/141.0.0.0" version="28.2.7">
  <diagram name="Page-1" id="L5D6gUy9eE5gOW8qyYls">
    <mxGraphModel dx="1616" dy="422" grid="1" gridSize="10" guides="1" tooltips="1" connect="1" arrows="1" fold="1" page="1" pageScale="1" pageWidth="850" pageHeight="1100" math="0" shadow="0">
      <root>
        <mxCell id="0" />
        <mxCell id="1" parent="0" />
        <mxCell id="kr0bj3KIHfq-hgrzYJve-1" value="w2151870_member" style="swimlane;fontStyle=0;childLayout=stackLayout;horizontal=1;startSize=30;horizontalStack=0;resizeParent=1;resizeParentMax=0;resizeLast=0;collapsible=1;marginBottom=0;whiteSpace=wrap;html=1;" vertex="1" parent="1">
          <mxGeometry x="60" y="40" width="160" height="140" as="geometry" />
        </mxCell>
        <mxCell id="kr0bj3KIHfq-hgrzYJve-2" value="&lt;span style=&quot;text-align: center;&quot;&gt;w2151870_&lt;/span&gt;memberID{PK}&lt;br&gt;&lt;div&gt;&lt;span style=&quot;text-align: center; background-color: transparent; color: light-dark(rgb(0, 0, 0), rgb(255, 255, 255));&quot;&gt;w2151870_&lt;/span&gt;memberName&lt;/div&gt;&lt;div&gt;&lt;span style=&quot;text-align: center; background-color: transparent; color: light-dark(rgb(0, 0, 0), rgb(255, 255, 255));&quot;&gt;w2151870_&lt;/span&gt;gender&lt;/div&gt;&lt;div&gt;&lt;span style=&quot;text-align: center; background-color: transparent; color: light-dark(rgb(0, 0, 0), rgb(255, 255, 255));&quot;&gt;w2151870_&lt;/span&gt;dob&lt;/div&gt;&lt;div&gt;&lt;span style=&quot;text-align: center; background-color: transparent; color: light-dark(rgb(0, 0, 0), rgb(255, 255, 255));&quot;&gt;w2151870_&lt;/span&gt;address&lt;/div&gt;&lt;div&gt;&lt;span style=&quot;text-align: center; background-color: transparent; color: light-dark(rgb(0, 0, 0), rgb(255, 255, 255));&quot;&gt;w2151870_&lt;/span&gt;contact&lt;/div&gt;&lt;div&gt;&lt;span style=&quot;text-align: center; background-color: transparent; color: light-dark(rgb(0, 0, 0), rgb(255, 255, 255));&quot;&gt;w2151870_&lt;/span&gt;email&lt;/div&gt;" style="text;strokeColor=none;fillColor=none;align=left;verticalAlign=middle;spacingLeft=4;spacingRight=4;overflow=hidden;points=[[0,0.5],[1,0.5]];portConstraint=eastwest;rotatable=0;whiteSpace=wrap;html=1;" vertex="1" parent="kr0bj3KIHfq-hgrzYJve-1">
          <mxGeometry y="30" width="160" height="110" as="geometry" />
        </mxCell>
        <mxCell id="kr0bj3KIHfq-hgrzYJve-5" value="w2151870_basket" style="swimlane;fontStyle=0;childLayout=stackLayout;horizontal=1;startSize=30;horizontalStack=0;resizeParent=1;resizeParentMax=0;resizeLast=0;collapsible=1;marginBottom=0;whiteSpace=wrap;html=1;" vertex="1" parent="1">
          <mxGeometry x="280" y="40" width="160" height="90" as="geometry" />
        </mxCell>
        <mxCell id="kr0bj3KIHfq-hgrzYJve-6" value="&lt;span style=&quot;text-align: center;&quot;&gt;w2151870_&lt;/span&gt;basketID{PK}&lt;br&gt;&lt;div&gt;&lt;span style=&quot;text-align: center; background-color: transparent; color: light-dark(rgb(0, 0, 0), rgb(255, 255, 255));&quot;&gt;w2151870_&lt;/span&gt;memberID&lt;/div&gt;&lt;div&gt;&lt;span style=&quot;text-align: center; background-color: transparent; color: light-dark(rgb(0, 0, 0), rgb(255, 255, 255));&quot;&gt;w2151870_&lt;/span&gt;basketName&lt;/div&gt;" style="text;strokeColor=none;fillColor=none;align=left;verticalAlign=middle;spacingLeft=4;spacingRight=4;overflow=hidden;points=[[0,0.5],[1,0.5]];portConstraint=eastwest;rotatable=0;whiteSpace=wrap;html=1;" vertex="1" parent="kr0bj3KIHfq-hgrzYJve-5">
          <mxGeometry y="30" width="160" height="60" as="geometry" />
        </mxCell>
        <mxCell id="kr0bj3KIHfq-hgrzYJve-9" value="w2151870_product" style="swimlane;fontStyle=0;childLayout=stackLayout;horizontal=1;startSize=30;horizontalStack=0;resizeParent=1;resizeParentMax=0;resizeLast=0;collapsible=1;marginBottom=0;whiteSpace=wrap;html=1;" vertex="1" parent="1">
          <mxGeometry x="520" y="160" width="160" height="110" as="geometry" />
        </mxCell>
        <mxCell id="kr0bj3KIHfq-hgrzYJve-10" value="&lt;span style=&quot;text-align: center;&quot;&gt;w2151870_&lt;/span&gt;productID{PK}&lt;br&gt;&lt;div&gt;&lt;span style=&quot;text-align: center; background-color: transparent; color: light-dark(rgb(0, 0, 0), rgb(255, 255, 255));&quot;&gt;w2151870_&lt;/span&gt;productName&lt;/div&gt;&lt;div&gt;&lt;span style=&quot;text-align: center; background-color: transparent; color: light-dark(rgb(0, 0, 0), rgb(255, 255, 255));&quot;&gt;w2151870_&lt;/span&gt;&lt;span style=&quot;background-color: transparent; color: light-dark(rgb(0, 0, 0), rgb(255, 255, 255));&quot;&gt;description&lt;/span&gt;&lt;/div&gt;&lt;div&gt;&lt;span style=&quot;text-align: center; background-color: transparent; color: light-dark(rgb(0, 0, 0), rgb(255, 255, 255));&quot;&gt;w2151870_&lt;/span&gt;&lt;span style=&quot;background-color: transparent; color: light-dark(rgb(0, 0, 0), rgb(255, 255, 255));&quot;&gt;category&lt;/span&gt;&lt;/div&gt;&lt;div&gt;&lt;span style=&quot;text-align: center; background-color: transparent; color: light-dark(rgb(0, 0, 0), rgb(255, 255, 255));&quot;&gt;w2151870_&lt;/span&gt;&lt;span style=&quot;background-color: transparent; color: light-dark(rgb(0, 0, 0), rgb(255, 255, 255));&quot;&gt;expiryDate&lt;/span&gt;&lt;/div&gt;" style="text;strokeColor=none;fillColor=none;align=left;verticalAlign=middle;spacingLeft=4;spacingRight=4;overflow=hidden;points=[[0,0.5],[1,0.5]];portConstraint=eastwest;rotatable=0;whiteSpace=wrap;html=1;" vertex="1" parent="kr0bj3KIHfq-hgrzYJve-9">
          <mxGeometry y="30" width="160" height="80" as="geometry" />
        </mxCell>
        <mxCell id="kr0bj3KIHfq-hgrzYJve-11" value="w2151870_order" style="swimlane;fontStyle=0;childLayout=stackLayout;horizontal=1;startSize=30;horizontalStack=0;resizeParent=1;resizeParentMax=0;resizeLast=0;collapsible=1;marginBottom=0;whiteSpace=wrap;html=1;" vertex="1" parent="1">
          <mxGeometry x="280" y="160" width="160" height="110" as="geometry" />
        </mxCell>
        <mxCell id="kr0bj3KIHfq-hgrzYJve-12" value="&lt;span style=&quot;text-align: center;&quot;&gt;w2151870_&lt;/span&gt;orderID&lt;br&gt;&lt;div&gt;&lt;span style=&quot;text-align: center; background-color: transparent; color: light-dark(rgb(0, 0, 0), rgb(255, 255, 255));&quot;&gt;w2151870_&lt;/span&gt;memberID&lt;/div&gt;&lt;div&gt;&lt;span style=&quot;text-align: center; background-color: transparent; color: light-dark(rgb(0, 0, 0), rgb(255, 255, 255));&quot;&gt;w2151870_&lt;/span&gt;orderDate&lt;/div&gt;&lt;div&gt;&lt;span style=&quot;text-align: center; background-color: transparent; color: light-dark(rgb(0, 0, 0), rgb(255, 255, 255));&quot;&gt;w2151870_&lt;/span&gt;orderStatus&lt;/div&gt;&lt;div&gt;&lt;span style=&quot;text-align: center; background-color: transparent; color: light-dark(rgb(0, 0, 0), rgb(255, 255, 255));&quot;&gt;w2151870_&lt;/span&gt;totalAmount&lt;/div&gt;" style="text;strokeColor=none;fillColor=none;align=left;verticalAlign=middle;spacingLeft=4;spacingRight=4;overflow=hidden;points=[[0,0.5],[1,0.5]];portConstraint=eastwest;rotatable=0;whiteSpace=wrap;html=1;" vertex="1" parent="kr0bj3KIHfq-hgrzYJve-11">
          <mxGeometry y="30" width="160" height="80" as="geometry" />
        </mxCell>
        <mxCell id="kr0bj3KIHfq-hgrzYJve-13" value="w2151870_collection" style="swimlane;fontStyle=0;childLayout=stackLayout;horizontal=1;startSize=30;horizontalStack=0;resizeParent=1;resizeParentMax=0;resizeLast=0;collapsible=1;marginBottom=0;whiteSpace=wrap;html=1;" vertex="1" parent="1">
          <mxGeometry x="60" y="220" width="140" height="60" as="geometry" />
        </mxCell>
        <mxCell id="kr0bj3KIHfq-hgrzYJve-14" value="Item 1" style="text;strokeColor=none;fillColor=none;align=left;verticalAlign=middle;spacingLeft=4;spacingRight=4;overflow=hidden;points=[[0,0.5],[1,0.5]];portConstraint=eastwest;rotatable=0;whiteSpace=wrap;html=1;" vertex="1" parent="kr0bj3KIHfq-hgrzYJve-13">
          <mxGeometry y="30" width="140" height="30" as="geometry" />
        </mxCell>
        <mxCell id="kr0bj3KIHfq-hgrzYJve-15" value="w2151870_payment" style="swimlane;fontStyle=0;childLayout=stackLayout;horizontal=1;startSize=30;horizontalStack=0;resizeParent=1;resizeParentMax=0;resizeLast=0;collapsible=1;marginBottom=0;whiteSpace=wrap;html=1;" vertex="1" parent="1">
          <mxGeometry x="280" y="300" width="180" height="110" as="geometry" />
        </mxCell>
        <mxCell id="kr0bj3KIHfq-hgrzYJve-16" value="&lt;span style=&quot;text-align: center;&quot;&gt;w2151870_&lt;/span&gt;paymentID&lt;br&gt;&lt;div&gt;&lt;span style=&quot;text-align: center; background-color: transparent; color: light-dark(rgb(0, 0, 0), rgb(255, 255, 255));&quot;&gt;w2151870_&lt;/span&gt;orderID&lt;/div&gt;&lt;div&gt;&lt;span style=&quot;text-align: center; background-color: transparent; color: light-dark(rgb(0, 0, 0), rgb(255, 255, 255));&quot;&gt;w2151870_&lt;/span&gt;paymentDate&lt;/div&gt;&lt;div&gt;&lt;span style=&quot;text-align: center; background-color: transparent; color: light-dark(rgb(0, 0, 0), rgb(255, 255, 255));&quot;&gt;w2151870_&lt;/span&gt;paymentMethod&lt;/div&gt;&lt;div&gt;&lt;span style=&quot;text-align: center; background-color: transparent; color: light-dark(rgb(0, 0, 0), rgb(255, 255, 255));&quot;&gt;w2151870_&lt;/span&gt;paymentStatus&lt;/div&gt;" style="text;strokeColor=none;fillColor=none;align=left;verticalAlign=middle;spacingLeft=4;spacingRight=4;overflow=hidden;points=[[0,0.5],[1,0.5]];portConstraint=eastwest;rotatable=0;whiteSpace=wrap;html=1;" vertex="1" parent="kr0bj3KIHfq-hgrzYJve-15">
          <mxGeometry y="30" width="180" height="80" as="geometry" />
        </mxCell>
        <mxCell id="kr0bj3KIHfq-hgrzYJve-19" value="w2151870_store" style="swimlane;fontStyle=0;childLayout=stackLayout;horizontal=1;startSize=30;horizontalStack=0;resizeParent=1;resizeParentMax=0;resizeLast=0;collapsible=1;marginBottom=0;whiteSpace=wrap;html=1;" vertex="1" parent="1">
          <mxGeometry x="520" y="430" width="160" height="120" as="geometry" />
        </mxCell>
        <mxCell id="kr0bj3KIHfq-hgrzYJve-20" value="&lt;span style=&quot;text-align: center;&quot;&gt;w2151870_&lt;/span&gt;storeID&lt;div&gt;w2151870_storeName&lt;/div&gt;&lt;div&gt;&lt;span style=&quot;text-align: center; background-color: transparent; color: light-dark(rgb(0, 0, 0), rgb(255, 255, 255));&quot;&gt;w2151870_&lt;/span&gt;location&lt;/div&gt;&lt;div&gt;&lt;span style=&quot;text-align: center; background-color: transparent; color: light-dark(rgb(0, 0, 0), rgb(255, 255, 255));&quot;&gt;w2151870_&lt;/span&gt;contactNumber&lt;/div&gt;" style="text;strokeColor=none;fillColor=none;align=left;verticalAlign=middle;spacingLeft=4;spacingRight=4;overflow=hidden;points=[[0,0.5],[1,0.5]];portConstraint=eastwest;rotatable=0;whiteSpace=wrap;html=1;" vertex="1" parent="kr0bj3KIHfq-hgrzYJve-19">
          <mxGeometry y="30" width="160" height="90" as="geometry" />
        </mxCell>
        <mxCell id="kr0bj3KIHfq-hgrzYJve-21" value="w2151870_employee" style="swimlane;fontStyle=0;childLayout=stackLayout;horizontal=1;startSize=30;horizontalStack=0;resizeParent=1;resizeParentMax=0;resizeLast=0;collapsible=1;marginBottom=0;whiteSpace=wrap;html=1;" vertex="1" parent="1">
          <mxGeometry x="280" y="450" width="140" height="120" as="geometry" />
        </mxCell>
        <mxCell id="kr0bj3KIHfq-hgrzYJve-22" value="&lt;span style=&quot;text-align: center;&quot;&gt;w2151870_&lt;/span&gt;employeeID&lt;br&gt;&lt;div&gt;&lt;span style=&quot;text-align: center; background-color: transparent; color: light-dark(rgb(0, 0, 0), rgb(255, 255, 255));&quot;&gt;w2151870_&lt;/span&gt;fName&lt;/div&gt;&lt;div&gt;&lt;span style=&quot;text-align: center; background-color: transparent; color: light-dark(rgb(0, 0, 0), rgb(255, 255, 255));&quot;&gt;w2151870_&lt;/span&gt;lName&lt;/div&gt;&lt;div&gt;&lt;span style=&quot;text-align: center; background-color: transparent; color: light-dark(rgb(0, 0, 0), rgb(255, 255, 255));&quot;&gt;w2151870_&lt;/span&gt;role&lt;/div&gt;&lt;div&gt;&lt;span style=&quot;text-align: center; background-color: transparent; color: light-dark(rgb(0, 0, 0), rgb(255, 255, 255));&quot;&gt;w2151870_&lt;/span&gt;contactNumber&lt;/div&gt;" style="text;strokeColor=none;fillColor=none;align=left;verticalAlign=middle;spacingLeft=4;spacingRight=4;overflow=hidden;points=[[0,0.5],[1,0.5]];portConstraint=eastwest;rotatable=0;whiteSpace=wrap;html=1;" vertex="1" parent="kr0bj3KIHfq-hgrzYJve-21">
          <mxGeometry y="30" width="140" height="90" as="geometry" />
        </mxCell>
        <mxCell id="kr0bj3KIHfq-hgrzYJve-23" value="w2151870_warehouse_worker" style="swimlane;fontStyle=0;childLayout=stackLayout;horizontal=1;startSize=30;horizontalStack=0;resizeParent=1;resizeParentMax=0;resizeLast=0;collapsible=1;marginBottom=0;whiteSpace=wrap;html=1;" vertex="1" parent="1">
          <mxGeometry x="-30" y="360" width="210" height="100" as="geometry" />
        </mxCell>
        <mxCell id="kr0bj3KIHfq-hgrzYJve-24" value="&lt;span style=&quot;text-align: center;&quot;&gt;w2151870_&lt;/span&gt;employeeID&lt;br&gt;&lt;div&gt;&lt;span style=&quot;text-align: center; background-color: transparent; color: light-dark(rgb(0, 0, 0), rgb(255, 255, 255));&quot;&gt;w2151870_&lt;/span&gt;assigned_orders_count&lt;/div&gt;" style="text;strokeColor=none;fillColor=none;align=left;verticalAlign=middle;spacingLeft=4;spacingRight=4;overflow=hidden;points=[[0,0.5],[1,0.5]];portConstraint=eastwest;rotatable=0;whiteSpace=wrap;html=1;" vertex="1" parent="kr0bj3KIHfq-hgrzYJve-23">
          <mxGeometry y="30" width="210" height="70" as="geometry" />
        </mxCell>
        <mxCell id="kr0bj3KIHfq-hgrzYJve-25" value="w2151870_driver" style="swimlane;fontStyle=0;childLayout=stackLayout;horizontal=1;startSize=30;horizontalStack=0;resizeParent=1;resizeParentMax=0;resizeLast=0;collapsible=1;marginBottom=0;whiteSpace=wrap;html=1;" vertex="1" parent="1">
          <mxGeometry x="20" y="490" width="150" height="110" as="geometry" />
        </mxCell>
        <mxCell id="kr0bj3KIHfq-hgrzYJve-26" value="&lt;span style=&quot;text-align: center;&quot;&gt;w2151870_&lt;/span&gt;employeeID&lt;br&gt;&lt;div&gt;&lt;span style=&quot;text-align: center; background-color: transparent; color: light-dark(rgb(0, 0, 0), rgb(255, 255, 255));&quot;&gt;w2151870_&lt;/span&gt;collectionDate&lt;/div&gt;&lt;div&gt;&lt;span style=&quot;text-align: center; background-color: transparent; color: light-dark(rgb(0, 0, 0), rgb(255, 255, 255));&quot;&gt;w2151870_&lt;/span&gt;driverID&lt;/div&gt;" style="text;strokeColor=none;fillColor=none;align=left;verticalAlign=middle;spacingLeft=4;spacingRight=4;overflow=hidden;points=[[0,0.5],[1,0.5]];portConstraint=eastwest;rotatable=0;whiteSpace=wrap;html=1;" vertex="1" parent="kr0bj3KIHfq-hgrzYJve-25">
          <mxGeometry y="30" width="150" height="80" as="geometry" />
        </mxCell>
        <mxCell id="kr0bj3KIHfq-hgrzYJve-28" value="w2151870_store" style="swimlane;fontStyle=0;childLayout=stackLayout;horizontal=1;startSize=30;horizontalStack=0;resizeParent=1;resizeParentMax=0;resizeLast=0;collapsible=1;marginBottom=0;whiteSpace=wrap;html=1;" vertex="1" parent="1">
          <mxGeometry x="520" y="280" width="170" height="110" as="geometry" />
        </mxCell>
        <mxCell id="kr0bj3KIHfq-hgrzYJve-29" value="&lt;span style=&quot;text-align: center;&quot;&gt;w2151870_&lt;/span&gt;store_Product_ID&lt;br&gt;&lt;div&gt;&lt;span style=&quot;text-align: center; background-color: transparent; color: light-dark(rgb(0, 0, 0), rgb(255, 255, 255));&quot;&gt;w2151870_&lt;/span&gt;storeID&lt;/div&gt;&lt;div&gt;&lt;span style=&quot;text-align: center; background-color: transparent; color: light-dark(rgb(0, 0, 0), rgb(255, 255, 255));&quot;&gt;w2151870_&lt;/span&gt;productID&lt;/div&gt;&lt;div&gt;&lt;span style=&quot;text-align: center; background-color: transparent; color: light-dark(rgb(0, 0, 0), rgb(255, 255, 255));&quot;&gt;w2151870_&lt;/span&gt;price&lt;/div&gt;&lt;div&gt;&lt;span style=&quot;text-align: center; background-color: transparent; color: light-dark(rgb(0, 0, 0), rgb(255, 255, 255));&quot;&gt;w2151870_&lt;/span&gt;stockLevel&lt;/div&gt;" style="text;strokeColor=none;fillColor=none;align=left;verticalAlign=middle;spacingLeft=4;spacingRight=4;overflow=hidden;points=[[0,0.5],[1,0.5]];portConstraint=eastwest;rotatable=0;whiteSpace=wrap;html=1;" vertex="1" parent="kr0bj3KIHfq-hgrzYJve-28">
          <mxGeometry y="30" width="170" height="80" as="geometry" />
        </mxCell>
        <mxCell id="kr0bj3KIHfq-hgrzYJve-30" value="w2151870_basket_item" style="swimlane;fontStyle=0;childLayout=stackLayout;horizontal=1;startSize=30;horizontalStack=0;resizeParent=1;resizeParentMax=0;resizeLast=0;collapsible=1;marginBottom=0;whiteSpace=wrap;html=1;" vertex="1" parent="1">
          <mxGeometry x="520" y="45" width="170" height="100" as="geometry" />
        </mxCell>
        <mxCell id="kr0bj3KIHfq-hgrzYJve-31" value="w2151870_basketItemID{PK}&lt;br&gt;&lt;div&gt;&lt;span style=&quot;text-align: center; background-color: transparent; color: light-dark(rgb(0, 0, 0), rgb(255, 255, 255));&quot;&gt;w2151870_&lt;/span&gt;basketID&lt;/div&gt;&lt;div&gt;&lt;span style=&quot;text-align: center; background-color: transparent; color: light-dark(rgb(0, 0, 0), rgb(255, 255, 255));&quot;&gt;w2151870_&lt;/span&gt;productID&lt;/div&gt;&lt;div&gt;&lt;span style=&quot;text-align: center; background-color: transparent; color: light-dark(rgb(0, 0, 0), rgb(255, 255, 255));&quot;&gt;w2151870_&lt;/span&gt;quantity&lt;/div&gt;" style="text;strokeColor=none;fillColor=none;align=left;verticalAlign=middle;spacingLeft=4;spacingRight=4;overflow=hidden;points=[[0,0.5],[1,0.5]];portConstraint=eastwest;rotatable=0;whiteSpace=wrap;html=1;" vertex="1" parent="kr0bj3KIHfq-hgrzYJve-30">
          <mxGeometry y="30" width="170" height="70" as="geometry" />
        </mxCell>
        <mxCell id="kr0bj3KIHfq-hgrzYJve-35" value="w2151870_delivery" style="swimlane;fontStyle=0;childLayout=stackLayout;horizontal=1;startSize=30;horizontalStack=0;resizeParent=1;resizeParentMax=0;resizeLast=0;collapsible=1;marginBottom=0;whiteSpace=wrap;html=1;" vertex="1" parent="1">
          <mxGeometry x="-180" y="100" width="140" height="60" as="geometry" />
        </mxCell>
        <mxCell id="kr0bj3KIHfq-hgrzYJve-36" value="Item 1" style="text;strokeColor=none;fillColor=none;align=left;verticalAlign=middle;spacingLeft=4;spacingRight=4;overflow=hidden;points=[[0,0.5],[1,0.5]];portConstraint=eastwest;rotatable=0;whiteSpace=wrap;html=1;" vertex="1" parent="kr0bj3KIHfq-hgrzYJve-35">
          <mxGeometry y="30" width="140" height="30" as="geometry" />
        </mxCell>
      </root>
    </mxGraphModel>
  </diagram>
</mxfile>
